<svg xmlns="http://www.w3.org/2000/svg" viewBox="0 0 1200 760" role="img" aria-labelledby="title desc">
  <title id="title">Portfolio sections</title>
  <desc id="desc">Portfolio section system showing skills, project cards, and contact surfaces.</desc>
  <defs><linearGradient id="bg" x1="0" x2="1" y1="0" y2="1"><stop stop-color="#0ea5e9"/><stop offset=".5" stop-color="#4f46e5"/><stop offset="1" stop-color="#111827"/></linearGradient></defs>
  <rect width="1200" height="760" fill="url(#bg)"/>
  <rect x="88" y="74" width="1024" height="612" rx="32" fill="#ffffff" opacity=".96"/>
  <text x="140" y="148" fill="#0f172a" font-family="Inter,Arial,sans-serif" font-size="32" font-weight="900">Component rhythm</text>
  <g><rect x="140" y="202" width="278" height="152" rx="22" fill="#dbeafe"/><rect x="462" y="202" width="278" height="152" rx="22" fill="#e0e7ff"/><rect x="784" y="202" width="278" height="152" rx="22" fill="#cffafe"/></g>
  <g fill="#1e293b"><rect x="176" y="250" width="152" height="18" rx="9"/><rect x="498" y="250" width="164" height="18" rx="9"/><rect x="820" y="250" width="136" height="18" rx="9"/></g>
  <rect x="140" y="402" width="432" height="190" rx="24" fill="#0f172a"/>
  <g fill="#38bdf8"><rect x="180" y="450" width="132" height="20" rx="10"/><rect x="180" y="496" width="244" height="14" rx="7"/><rect x="180" y="530" width="198" height="14" rx="7"/></g>
  <rect x="620" y="402" width="442" height="190" rx="24" fill="#f8fafc" stroke="#cbd5e1" stroke-width="2"/>
  <g fill="#4f46e5"><circle cx="684" cy="466" r="24"/><circle cx="758" cy="466" r="24"/><circle cx="832" cy="466" r="24"/></g>
  <rect x="684" y="530" width="254" height="18" rx="9" fill="#64748b"/>
</svg>
